# xmcd
#
# Track frame offsets:
#	150
#	18057
#	35302
#	47312
#	65340
#	80767
#	101285
#	119012
#	138307
#	157470
#	173382
#	207690
#	227415
# Disc length: 3258 seconds
# Revision: 1
# Processed by: cddbd v1.5.1PL0 Copyright (c) Steve Scherf et al.
#
# Submitted via: libkcddb 0.10
#
DISCID=a30cb80d
DTITLE=Blue Avengers - In From The Cold
DYEAR=1900
DGENRE=
TTITLE0=You Got Me Hummin'
TTITLE1=Precious, Precious
TTITLE2=Bitter With The Sweet
TTITLE3=Unchain My Heart
TTITLE4=Don't Mess Up A Good Thing
TTITLE5=Summertime
TTITLE6=Time Of Our Lives
TTITLE7=Mercy, Mercy, Mercy
TTITLE8=My Favorite Mistake
TTITLE9=Ain't That Peculiar
TTITLE10=Stormy Monday Blues
TTITLE11=I Just Wanna Make Love To You
TTITLE12=The End Of Our Road
EXTD=
EXTT0=
EXTT1=
EXTT2=
EXTT3=
EXTT4=
EXTT5=
EXTT6=
EXTT7=
EXTT8=
EXTT9=
EXTT10=
EXTT11=
EXTT12=
PLAYORDER=
